<svg width="591" height="360" viewBox="0 0 591 360" fill="none" xmlns="http://www.w3.org/2000/svg">
<g clip-path="url(#clip0_22_31)">
<path d="M2.59507 28.2154C4.3496 29.4615 59.6173 67.3077 125.366 112.308C191.161 157.308 251.092 198.385 258.664 203.554C266.19 208.677 272.47 212.923 272.654 212.923C272.839 212.923 279.165 208.723 286.691 203.554C294.217 198.385 354.794 156.938 421.328 111.385C487.862 65.8769 543.129 28.0308 544.099 27.2923L545.946 26H272.654H-0.636963L2.59507 28.2154Z" fill="url(#paint0_linear_22_31)"/>
<path d="M-23.9077 212.277L-23.7691 373.769L-22.5225 376.308C-20.9065 379.585 -17.5821 382.908 -14.3039 384.523L-11.7645 385.769H271.5H554.764L557.304 384.523C560.582 382.908 563.906 379.585 565.523 376.308L566.769 373.769L566.908 213.015C566.954 124.631 566.908 52.3077 566.769 52.3077C566.631 52.3077 541.421 69.477 510.763 90.477C480.105 111.431 420.774 152.092 378.85 180.754C336.972 209.462 298.511 235.769 293.432 239.231C288.353 242.739 283.782 245.785 283.274 246.015C282.766 246.292 280.411 247.031 278.056 247.723C272.562 249.246 268.545 249.292 264.99 247.862C263.558 247.262 251.923 239.6 239.134 230.831C226.344 222.108 173.985 186.246 122.827 151.215C-7.70133 61.8616 -21.2759 52.5847 -22.7534 51.6616L-24 50.8308L-23.9077 212.277Z" fill="url(#paint1_linear_22_31)"/>
<rect x="-992" y="-362" width="1920" height="1080" fill="url(#paint2_linear_22_31)"/>
<g clip-path="url(#clip1_22_31)">
<path d="M26.5951 2.21539C28.3496 3.46155 83.6173 41.3077 149.366 86.3077C215.161 131.308 275.092 172.385 282.664 177.554C290.19 182.677 296.47 186.923 296.654 186.923C296.839 186.923 303.165 182.723 310.691 177.554C318.217 172.385 378.794 130.938 445.328 85.3846C511.862 39.8769 567.129 2.03078 568.099 1.29233L569.946 1.52588e-05H296.654H23.363L26.5951 2.21539Z" fill="url(#paint3_linear_22_31)"/>
<path d="M0.0923438 186.277L0.230859 347.769L1.4775 350.308C3.09352 353.585 6.41789 356.908 9.69609 358.523L12.2355 359.769H295.5H578.764L581.304 358.523C584.582 356.908 587.906 353.585 589.523 350.308L590.769 347.769L590.908 187.015C590.954 98.6308 590.908 26.3077 590.769 26.3077C590.631 26.3077 565.421 43.4769 534.763 64.4769C504.105 85.4308 444.774 126.092 402.85 154.754C360.972 183.462 322.511 209.769 317.432 213.231C312.353 216.738 307.782 219.785 307.274 220.015C306.766 220.292 304.411 221.031 302.056 221.723C296.562 223.246 292.545 223.292 288.99 221.862C287.558 221.262 275.923 213.6 263.134 204.831C250.344 196.108 197.985 160.246 146.827 125.215C16.2987 35.8616 2.72414 26.5846 1.24664 25.6616L0 24.8308L0.0923438 186.277Z" fill="url(#paint4_linear_22_31)"/>
</g>
</g>
<defs>
<linearGradient id="paint0_linear_22_31" x1="272.654" y1="26" x2="272.654" y2="212.923" gradientUnits="userSpaceOnUse">
<stop stop-color="#8D8D8D"/>
<stop offset="1" stop-color="#2D0000"/>
</linearGradient>
<linearGradient id="paint1_linear_22_31" x1="271.462" y1="50.8308" x2="271.462" y2="385.769" gradientUnits="userSpaceOnUse">
<stop stop-color="#8D8D8D"/>
<stop offset="1" stop-color="#2D0000"/>
</linearGradient>
<linearGradient id="paint2_linear_22_31" x1="-32" y1="-362" x2="-32" y2="718" gradientUnits="userSpaceOnUse">
<stop/>
<stop offset="1" stop-color="#470000"/>
</linearGradient>
<linearGradient id="paint3_linear_22_31" x1="296.654" y1="1.52588e-05" x2="296.654" y2="186.923" gradientUnits="userSpaceOnUse">
<stop stop-color="#8D8D8D"/>
<stop offset="1" stop-color="#2D0000"/>
</linearGradient>
<linearGradient id="paint4_linear_22_31" x1="295.462" y1="24.8308" x2="295.462" y2="359.769" gradientUnits="userSpaceOnUse">
<stop stop-color="#8D8D8D"/>
<stop offset="1" stop-color="#2D0000"/>
</linearGradient>
<clipPath id="clip0_22_31">
<rect width="591" height="360" fill="white"/>
</clipPath>
<clipPath id="clip1_22_31">
<rect width="591" height="360" fill="white"/>
</clipPath>
</defs>
</svg>
