<svg width="40" height="40" viewBox="0 0 40 40" fill="none" xmlns="http://www.w3.org/2000/svg">
<path fill-rule="evenodd" clip-rule="evenodd" d="M20 18.75C20.3315 18.75 20.6495 18.8817 20.8839 19.1161C21.1183 19.3505 21.25 19.6685 21.25 20V23.75H25C25.3315 23.75 25.6495 23.8817 25.8839 24.1161C26.1183 24.3505 26.25 24.6685 26.25 25C26.25 25.3315 26.1183 25.6495 25.8839 25.8839C25.6495 26.1183 25.3315 26.25 25 26.25H21.25V30C21.25 30.3315 21.1183 30.6495 20.8839 30.8839C20.6495 31.1183 20.3315 31.25 20 31.25C19.6685 31.25 19.3505 31.1183 19.1161 30.8839C18.8817 30.6495 18.75 30.3315 18.75 30V26.25H15C14.6685 26.25 14.3505 26.1183 14.1161 25.8839C13.8817 25.6495 13.75 25.3315 13.75 25C13.75 24.6685 13.8817 24.3505 14.1161 24.1161C14.3505 23.8817 14.6685 23.75 15 23.75H18.75V20C18.75 19.6685 18.8817 19.3505 19.1161 19.1161C19.3505 18.8817 19.6685 18.75 20 18.75Z" fill="white"/>
<path d="M20 2.5C21.6576 2.5 23.2473 3.15848 24.4194 4.33058C25.5915 5.50269 26.25 7.0924 26.25 8.75V10H13.75V8.75C13.75 7.0924 14.4085 5.50269 15.5806 4.33058C16.7527 3.15848 18.3424 2.5 20 2.5ZM28.75 10V8.75C28.75 6.42936 27.8281 4.20376 26.1872 2.56282C24.5462 0.921872 22.3206 0 20 0C17.6794 0 15.4538 0.921872 13.8128 2.56282C12.1719 4.20376 11.25 6.42936 11.25 8.75V10H2.5V35C2.5 36.3261 3.02678 37.5979 3.96447 38.5355C4.90215 39.4732 6.17392 40 7.5 40H32.5C33.8261 40 35.0979 39.4732 36.0355 38.5355C36.9732 37.5979 37.5 36.3261 37.5 35V10H28.75ZM5 12.5H35V35C35 35.663 34.7366 36.2989 34.2678 36.7678C33.7989 37.2366 33.163 37.5 32.5 37.5H7.5C6.83696 37.5 6.20107 37.2366 5.73223 36.7678C5.26339 36.2989 5 35.663 5 35V12.5Z" fill="white"/>
</svg>
